<svg width="423" height="104" viewBox="0 0 423 104" fill="none" xmlns="http://www.w3.org/2000/svg">
<path d="M0.3125 101L32.25 48.6875L2 0.25H32.625L48.0625 26.875L63.4375 0.25H94.0625L63.6875 48.625L95.75 101H64.9375L48 71.25L31.125 101H0.3125ZM171.188 25.125H132.312V39.1875H164.312V61.5H132.312V75.9375H171.188V101H105.875V0.25H171.188V25.125ZM212.875 75.875H251.438V101H186.125V0.25H212.875V75.875ZM289.625 75.875H328.188V101H262.875V0.25H289.625V75.875ZM380.562 103.812C357.5 103.812 338.75 87.5 338.75 64.375V0.25H365.688V64.3125C365.688 72.6875 372.875 78.25 380.5 78.25C388.062 78.25 395.438 72.5625 395.438 64.3125V0.25H422.375V64.375C422.375 87.5 403.625 103.812 380.562 103.812Z" fill="url(#paint0_linear_2_2)"/>
<defs>
<linearGradient id="paint0_linear_2_2" x1="215" y1="-39" x2="215" y2="134" gradientUnits="userSpaceOnUse">
<stop stop-color="#9900CF"/>
<stop offset="1" stop-color="#D15FFA" stop-opacity="0"/>
</linearGradient>
</defs>
</svg>
